<?xml version="1.0" encoding="iso-8859-1"?>
<!-- Uploaded to: SVG Repo, www.svgrepo.com, Generator: SVG Repo Mixer Tools -->
<svg height="800px" width="800px" version="1.1" id="Layer_1" xmlns="http://www.w3.org/2000/svg" xmlns:xlink="http://www.w3.org/1999/xlink" 
	 viewBox="0 0 512 512" xml:space="preserve">
<path style="fill:#72CCC5;" d="M405.976,203.094c-4.874,0-8.826,3.952-8.826,8.826c0,14.6-11.879,26.479-26.479,26.479
	c-14.6,0-26.479-11.879-26.479-26.479c0-4.874-3.952-8.826-8.826-8.826c-4.874,0-8.826,3.952-8.826,8.826
	c0,14.6-11.879,26.479-26.479,26.479s-26.479-11.879-26.479-26.479c0-4.874-3.952-8.826-8.826-8.826
	c-4.874,0-8.826,3.952-8.826,8.826c0,14.6-11.879,26.479-26.479,26.479c-14.6,0-26.479-11.879-26.479-26.479
	c0-4.874-3.952-8.826-8.826-8.826s-8.826,3.952-8.826,8.826c0,14.6-11.879,26.479-26.479,26.479
	c-14.6,0-26.479-11.879-26.479-26.479c0-4.874-3.952-8.826-8.826-8.826s-8.826,3.952-8.826,8.826v44.132
	c0,82.738,67.312,150.05,150.05,150.05s150.05-67.312,150.05-150.05v-44.132C414.802,207.046,410.85,203.094,405.976,203.094z"/>
<path style="fill:#11BBA3;" d="M397.15,300.185c0,14.6-11.879,26.479-26.479,26.479c-14.6,0-26.479-11.879-26.479-26.479
	c0-4.874-3.952-8.826-8.826-8.826c-4.874,0-8.826,3.952-8.826,8.826c0,14.6-11.879,26.479-26.479,26.479
	s-26.479-11.879-26.479-26.479c0-4.874-3.952-8.826-8.826-8.826c-4.874,0-8.826,3.952-8.826,8.826
	c0,14.6-11.879,26.479-26.479,26.479c-14.6,0-26.479-11.879-26.479-26.479c0-4.874-3.952-8.826-8.826-8.826
	s-8.826,3.952-8.826,8.826c0,14.6-11.879,26.479-26.479,26.479c-14.6,0-26.479-11.879-26.479-26.479
	c0-4.874-3.952-8.826-8.826-8.826c-1.579,0-3.057,0.419-4.34,1.146c16.328,65.179,75.393,113.597,145.564,113.597
	s129.235-48.419,145.564-113.597c-1.282-0.726-2.76-1.146-4.34-1.146C401.101,291.359,397.15,295.311,397.15,300.185z"/>
<path id="SVGCleanerId_0" style="fill:#72CCC5;" d="M271.528,82.694c-3.474-4.161-10.076-4.161-13.551,0
	c-6.238,7.472-37.357,45.837-37.357,67.442c0,24.335,19.798,44.132,44.132,44.132c24.335,0,44.132-19.798,44.132-44.132
	C308.885,128.531,277.766,90.165,271.528,82.694z"/>
<g>
	<path id="SVGCleanerId_0_1_" style="fill:#72CCC5;" d="M271.528,82.694c-3.474-4.161-10.076-4.161-13.551,0
		c-6.238,7.472-37.357,45.837-37.357,67.442c0,24.335,19.798,44.132,44.132,44.132c24.335,0,44.132-19.798,44.132-44.132
		C308.885,128.531,277.766,90.165,271.528,82.694z"/>
</g>
<path style="fill:#11BBA3;" d="M282.406,176.615c-24.335,0-44.132-19.798-44.132-44.132c0-14.867,14.736-37.671,25.96-52.884
	c-2.342,0.134-4.638,1.156-6.256,3.094c-6.238,7.472-37.357,45.837-37.357,67.442c0,24.335,19.798,44.132,44.132,44.132
	c16.697,0,31.257-9.322,38.751-23.034C297.233,174.663,290.043,176.615,282.406,176.615z"/>
<circle style="fill:#8FDED7;" cx="273.575" cy="123.659" r="17.653"/>
<path style="fill:#FFC552;" d="M264.753,450.235c-104.111,0-189.35-82.367-193.983-185.355h8.628c6.805,0,11.106-7.754,7.469-13.53
	l-33.349-52.959c-3.293-5.231-11.124-5.44-14.687-0.376L1.568,250.973c-4.04,5.742,0.212,13.906,7.218,13.906h8.98
	c2.186,62.705,27.639,121.335,72.232,165.928c46.679,46.679,108.741,72.386,174.755,72.386c4.874,0,8.826-3.952,8.826-8.826v-35.306
	C273.579,454.187,269.627,450.235,264.753,450.235z"/>
<path id="SVGCleanerId_1" style="fill:#FFC552;" d="M53.953,144.541l30.576,17.653c4.17,2.409,9.653,0.932,12.057-3.23
	C148.642,68.8,262.592,36.165,354.1,83.646l-4.314,7.473c-3.419,5.923,1.185,13.479,7.982,13.233l62.538-2.401
	c6.181-0.237,10.277-6.906,7.669-12.531l-27.232-58.751c-2.947-6.358-12.144-6.778-15.653-0.702l-4.49,7.777
	C325.205,8.283,261.702,1.013,200.789,17.334C137.024,34.42,83.73,75.314,50.723,132.483
	C48.317,136.648,49.794,142.139,53.953,144.541z"/>
<g>
	<path id="SVGCleanerId_1_1_" style="fill:#FFC552;" d="M53.953,144.541l30.576,17.653c4.17,2.409,9.653,0.932,12.057-3.23
		C148.642,68.8,262.592,36.165,354.1,83.646l-4.314,7.473c-3.419,5.923,1.185,13.479,7.982,13.233l62.538-2.401
		c6.181-0.237,10.277-6.906,7.669-12.531l-27.232-58.751c-2.947-6.358-12.144-6.778-15.653-0.702l-4.49,7.777
		C325.205,8.283,261.702,1.013,200.789,17.334C137.024,34.42,83.73,75.314,50.723,132.483
		C48.317,136.648,49.794,142.139,53.953,144.541z"/>
</g>
<path style="fill:#FFC552;" d="M478.783,132.483c-2.402-4.159-7.892-5.637-12.057-3.23l-30.576,17.653
	c-4.159,2.402-5.636,7.892-3.23,12.057c52.056,90.163,23.344,205.165-63.531,260.672l-4.314-7.473
	c-3.408-5.904-12.277-5.724-15.452,0.297l-29.19,55.359c-2.892,5.486,0.858,12.355,7.018,12.908l64.496,5.792
	c6.979,0.64,11.939-7.132,8.434-13.204l-4.49-7.777c53.211-33.246,91.26-84.604,107.582-145.519
	C520.558,256.254,511.79,189.653,478.783,132.483z"/>
</svg>